<svg height="512pt" viewBox="0 0 512 512" width="512pt" xmlns="http://www.w3.org/2000/svg"><path d="m376.5 240.992188h-321.332031c-4.324219 0-8.4375 1.867187-11.285157 5.117187-2.851562 3.253906-4.15625 7.578125-3.582031 11.863281l26.824219 201.1875c1.890625 14.195313 9.183594 27.484375 20.535156 37.421875 11.351563 9.9375 25.484375 15.410157 39.808594 15.410157h249.03125c8.28125 0 15-6.714844 15-15v-241c0-8.285157-6.714844-15-15-15zm0 0" fill="#ff9f00"/><path d="m376.5 240.992188h-120.5v271h120.5c8.285156 0 15-6.714844 15-15v-241c0-8.285157-6.714844-15-15-15zm0 0" fill="#e47500"/><path d="m196.769531 4.199219c-28.105469-11.640625-60.4375 1.753906-72.078125 29.855469l-56.273437 135.863281c-3.171875 7.652343.460937 16.425781 8.113281 19.597656 1.878906.777344 3.824219 1.144531 5.734375 1.144531 5.886719 0 11.472656-3.488281 13.867187-9.265625l2.375-5.738281h55.71875c0 5.882812 3.484376 11.46875 9.257813 13.859375 7.652344 3.167969 16.429687-.464844 19.597656-8.121094l43.542969-105.117187c11.636719-28.105469-1.753906-60.4375-29.855469-72.078125zm0 0" fill="#a8ebfa"/><path d="m443.582031 169.917969-56.273437-135.863281c-11.640625-28.101563-43.976563-41.496094-72.078125-29.855469-13.613281 5.640625-24.21875 16.242187-29.855469 29.855469-5.640625 13.617187-5.636719 28.609374.003906 42.226562l43.539063 105.117188c3.167969 7.652343 11.945312 11.289062 19.597656 8.117187 5.773437-2.390625 9.257813-7.976563 9.261719-13.859375h55.714844l2.378906 5.742188c2.390625 5.773437 7.976562 9.261718 13.863281 9.261718 1.910156 0 3.855469-.367187 5.734375-1.144531 7.652344-3.171875 11.285156-11.945313 8.113281-19.597656zm0 0" fill="#76e2f8"/><path d="m456.832031 160.65625h-401.664062c-30.421875 0-55.167969 24.75-55.167969 55.167969s24.746094 55.167969 55.167969 55.167969h401.664062c30.417969 0 55.167969-24.75 55.167969-55.167969s-24.75-55.167969-55.167969-55.167969zm0 0" fill="#d55f05"/><path d="m456.832031 160.65625h-200.832031v110.335938h200.832031c30.417969 0 55.167969-24.75 55.167969-55.167969s-24.75-55.167969-55.167969-55.167969zm0 0" fill="#a24603"/><path d="m376.5 240.992188c-74.714844 0-135.5 60.785156-135.5 135.5 0 74.714843 60.785156 135.5 135.5 135.5s135.5-60.785157 135.5-135.5c0-74.714844-60.785156-135.5-135.5-135.5zm0 0" fill="#54e360"/><path d="m512 376.492188c0-74.714844-60.785156-135.5-135.5-135.5v271c74.714844 0 135.5-60.785157 135.5-135.5zm0 0" fill="#00ab5e"/><path d="m416.664062 361.492188h-25.164062v-25.167969c0-8.285157-6.71875-15-15-15-8.285156 0-15 6.714843-15 15v25.167969h-25.167969c-8.285156 0-15 6.714843-15 15 0 8.285156 6.714844 15 15 15h25.167969v25.164062c0 8.285156 6.714844 15 15 15 8.28125 0 15-6.714844 15-15v-25.164062h25.164062c8.285157 0 15-6.714844 15-15 0-8.285157-6.714843-15-15-15zm0 0" fill="#fef4f5"/><path d="m416.664062 361.492188h-25.164062v-25.167969c0-8.285157-6.71875-15-15-15v110.332031c8.28125 0 15-6.714844 15-15v-25.164062h25.164062c8.285157 0 15-6.714844 15-15 0-8.285157-6.714843-15-15-15zm0 0" fill="#d5eded"/></svg>