<?xml version="1.0" encoding="iso-8859-1"?>
<!-- Generator: Adobe Illustrator 19.0.0, SVG Export Plug-In . SVG Version: 6.00 Build 0)  -->
<svg version="1.1" id="Capa_1" xmlns="http://www.w3.org/2000/svg" xmlns:xlink="http://www.w3.org/1999/xlink" x="0px" y="0px"
	 viewBox="0 0 512 512" style="enable-background:new 0 0 512 512;" xml:space="preserve">
<path style="fill:#FC5B6F;" d="M465.861,195.711h-31.498H89.308H57.81c-7.236,0-13.156,5.92-13.156,13.156v71.078v109.606v71.078
	c0,7.236,5.92,13.156,13.156,13.156h31.498c10.958,0,362.06,0,376.552,0c7.236,0,13.156-5.92,13.156-13.156
	c0-12.257,0-239.364,0-251.761C479.017,201.631,473.097,195.711,465.861,195.711z"/>
<path style="fill:#F74352;" d="M87.278,460.628V389.55V279.945v-71.078c0-7.236,5.92-13.156,13.156-13.156H89.308H57.81
	c-7.236,0-13.156,5.92-13.156,13.156v71.078v109.606v71.078c0,7.236,5.92,13.156,13.156,13.156h31.498h11.126
	C93.199,473.784,87.278,467.864,87.278,460.628z"/>
<path style="fill:#EFEFEF;" d="M421.202,388.536H13.161C5.922,388.536,0,382.613,0,375.375V123.624
	c0-7.239,5.923-13.161,13.161-13.161h408.04c7.239,0,13.161,5.923,13.161,13.161v251.751
	C434.363,382.613,428.44,388.536,421.202,388.536z"/>
<path style="fill:#DDDDDD;" d="M43.301,375.375V123.623c0-7.239,5.923-13.161,13.161-13.161H13.161
	C5.923,110.462,0,116.385,0,123.623v251.751c0,7.239,5.922,13.161,13.161,13.161h43.301
	C49.223,388.536,43.301,382.613,43.301,375.375z"/>
<g>
	<path style="fill:#FAC149;" d="M437.417,76.382c-3.64-2.102-4.888-6.756-2.786-10.397l13.835-23.964
		c2.101-3.641,6.757-4.887,10.397-2.786c3.64,2.102,4.888,6.756,2.786,10.397l-13.835,23.964
		C445.707,77.248,441.047,78.478,437.417,76.382z"/>
	<path style="fill:#FAC149;" d="M460.33,99.295c-2.102-3.64-0.855-8.295,2.786-10.397l23.963-13.835
		c3.641-2.101,8.295-0.855,10.397,2.786c2.102,3.64,0.855,8.295-2.786,10.397l-23.963,13.835
		C467.103,104.173,462.441,102.952,460.33,99.295z"/>
	<path style="fill:#FAC149;" d="M504.388,138.371h-28.416c-4.204,0-7.612-3.407-7.612-7.611c0-4.204,3.408-7.612,7.612-7.612h28.416
		c4.204,0,7.612,3.407,7.612,7.612C512,134.964,508.592,138.371,504.388,138.371z"/>
</g>
<rect y="167.299" style="fill:#647892;" width="434.36" height="56.833"/>
<rect y="167.299" style="fill:#4D6682;" width="43.3" height="56.833"/>
<g>
	<path style="fill:#F991A2;" d="M119.754,439.786h-15.223c-4.204,0-7.611-3.407-7.611-7.612s3.408-7.611,7.611-7.611h15.223
		c4.204,0,7.611,3.407,7.611,7.611S123.958,439.786,119.754,439.786z"/>
	<path style="fill:#F991A2;" d="M169.483,439.786H154.26c-4.204,0-7.611-3.407-7.611-7.612s3.408-7.611,7.611-7.611h15.223
		c4.204,0,7.611,3.407,7.611,7.611S173.686,439.786,169.483,439.786z"/>
	<path style="fill:#F991A2;" d="M220.226,439.786h-16.238c-4.204,0-7.611-3.407-7.611-7.612s3.408-7.611,7.611-7.611h16.238
		c4.204,0,7.611,3.407,7.611,7.611S224.43,439.786,220.226,439.786z"/>
	<path style="fill:#F991A2;" d="M269.954,439.786h-15.223c-4.204,0-7.611-3.407-7.611-7.612s3.408-7.611,7.611-7.611h15.223
		c4.204,0,7.612,3.407,7.612,7.611S274.158,439.786,269.954,439.786z"/>
</g>
<g>
	<path style="fill:#647892;" d="M171.512,278.423h-5.074c-4.204,0-7.612-3.407-7.612-7.611c0-4.204,3.408-7.612,7.612-7.612h5.074
		c4.204,0,7.611,3.407,7.611,7.612C179.124,275.015,175.716,278.423,171.512,278.423z"/>
	<path style="fill:#647892;" d="M202.973,278.423h-5.074c-4.204,0-7.611-3.407-7.611-7.611c0-4.204,3.408-7.612,7.611-7.612h5.074
		c4.204,0,7.611,3.407,7.611,7.612C210.585,275.015,207.177,278.423,202.973,278.423z"/>
	<path style="fill:#647892;" d="M234.434,278.423h-4.059c-4.204,0-7.611-3.407-7.611-7.611c0-4.204,3.408-7.612,7.611-7.612h4.059
		c4.204,0,7.611,3.407,7.611,7.612C242.046,275.015,238.638,278.423,234.434,278.423z"/>
</g>
<g>
	<path style="fill:#DDDDDD;" d="M132.947,278.423H44.654c-4.204,0-7.611-3.407-7.611-7.611c0-4.204,3.408-7.612,7.611-7.612h88.293
		c4.204,0,7.611,3.407,7.611,7.612C140.559,275.015,137.151,278.423,132.947,278.423z"/>
	<path style="fill:#DDDDDD;" d="M234.434,313.943H44.654c-4.204,0-7.611-3.407-7.611-7.612c0-4.204,3.408-7.611,7.611-7.611h189.78
		c4.204,0,7.611,3.407,7.611,7.611C242.046,310.536,238.638,313.943,234.434,313.943z"/>
	<path style="fill:#DDDDDD;" d="M234.434,349.463H44.654c-4.204,0-7.611-3.407-7.611-7.612s3.408-7.611,7.611-7.611h189.78
		c4.204,0,7.611,3.407,7.611,7.611S238.638,349.463,234.434,349.463z"/>
</g>
<g>
	<path style="fill:#CECCCA;" d="M64.444,270.811c0-4.204,3.408-7.612,7.612-7.612H44.654c-4.204,0-7.611,3.407-7.611,7.612
		c0,4.204,3.408,7.611,7.611,7.611h27.401C67.852,278.423,64.444,275.015,64.444,270.811z"/>
	<path style="fill:#CECCCA;" d="M64.444,306.332c0-4.204,3.408-7.611,7.612-7.611H44.654c-4.204,0-7.611,3.407-7.611,7.611
		c0,4.204,3.408,7.612,7.611,7.612h27.401C67.852,313.943,64.444,310.536,64.444,306.332z"/>
	<path style="fill:#CECCCA;" d="M64.444,341.852c0-4.204,3.408-7.611,7.612-7.611H44.654c-4.204,0-7.611,3.407-7.611,7.611
		s3.408,7.612,7.611,7.612h27.401C67.852,349.463,64.444,346.056,64.444,341.852z"/>
</g>
<path style="fill:#FC5B6F;" d="M314.416,321.007c-6.592-18.112,1.043-37.923,17.186-47.225c-9.662-5.574-21.626-7.003-32.928-2.89
	c-20.292,7.386-30.755,29.822-23.369,50.115c7.386,20.291,29.822,30.754,50.114,23.369c2.18-0.794,4.239-1.77,6.183-2.89
	C323.917,337.051,317.688,329.996,314.416,321.007z"/>
<path style="fill:#FAC149;" d="M387.899,294.261c-7.386-20.292-29.823-30.754-50.115-23.369c-2.18,0.793-4.239,1.77-6.182,2.89
	c7.685,4.434,13.915,11.489,17.186,20.479c6.592,18.112-1.042,37.923-17.186,47.225c9.661,5.574,21.626,7.003,32.928,2.89
	C384.822,336.99,395.284,314.553,387.899,294.261z"/>
<path style="fill:#F38D1A;" d="M348.788,294.261c-3.272-8.99-9.501-16.045-17.186-20.479c-16.144,9.302-23.778,29.113-17.186,47.225
	c3.272,8.99,9.502,16.045,17.187,20.479C347.746,332.184,355.381,312.372,348.788,294.261z"/>
<path style="fill:#F74352;" d="M308.461,331.403c-17.617-14.782-22.422-39.147-13.223-59.067
	c-18.009,8.55-26.888,29.56-19.932,48.671c7.386,20.291,29.822,30.754,50.114,23.369c1.791-0.652,3.479-1.453,5.11-2.33
	C322.653,340.448,315.051,336.933,308.461,331.403z"/>
<g>
</g>
<g>
</g>
<g>
</g>
<g>
</g>
<g>
</g>
<g>
</g>
<g>
</g>
<g>
</g>
<g>
</g>
<g>
</g>
<g>
</g>
<g>
</g>
<g>
</g>
<g>
</g>
<g>
</g>
</svg>
