<svg width="155" height="47" viewBox="0 0 155 47" fill="none" xmlns="http://www.w3.org/2000/svg">
<path fill-rule="evenodd" clip-rule="evenodd" d="M132 0H12V34C12 39.5228 16.4772 44 22 44H132C137.523 44 142 39.5228 142 34V10C142 4.47715 137.523 0 132 0ZM23 17C26.3137 17 29 14.3137 29 11C29 7.68629 26.3137 5 23 5C19.6863 5 17 7.68629 17 11C17 14.3137 19.6863 17 23 17Z" fill="#96E679"/>
<g filter="url(#filter0_d)">
<path d="M42.2752 25.4756V38H38.0564V6.00781H49.8558C53.3567 6.00781 56.096 6.90137 58.0735 8.68848C60.0657 10.4756 61.0618 12.8413 61.0618 15.7856C61.0618 18.8911 60.0877 21.2861 58.1394 22.9707C56.2058 24.6406 53.43 25.4756 49.8118 25.4756H42.2752ZM42.2752 22.0259H49.8558C52.1116 22.0259 53.8401 21.4985 55.0413 20.4438C56.2425 19.3745 56.8431 17.8364 56.8431 15.8296C56.8431 13.9253 56.2425 12.4019 55.0413 11.2593C53.8401 10.1167 52.1922 9.52344 50.0975 9.47949H42.2752V22.0259ZM81.0789 29.6504H67.6756L64.6653 38H60.3147L72.5315 6.00781H76.2229L88.4617 38H84.1331L81.0789 29.6504ZM68.95 26.1787H79.8265L74.3772 11.2153L68.95 26.1787ZM97.2947 38H93.076V6.00781H97.2947V38ZM105.029 38V6.00781H114.06C116.843 6.00781 119.304 6.62305 121.443 7.85352C123.581 9.08398 125.229 10.8345 126.387 13.105C127.558 15.3755 128.152 17.9829 128.166 20.9272V22.9707C128.166 25.9883 127.58 28.6323 126.408 30.9028C125.251 33.1733 123.589 34.9165 121.421 36.1323C119.267 37.3481 116.755 37.9707 113.884 38H105.029ZM109.248 9.47949V34.5503H113.686C116.938 34.5503 119.465 33.5396 121.267 31.5181C123.083 29.4966 123.991 26.6182 123.991 22.8828V21.0151C123.991 17.3823 123.135 14.5625 121.421 12.5557C119.721 10.5342 117.304 9.50879 114.17 9.47949H109.248Z" fill="white"/>
</g>
<defs>
<filter id="filter0_d" x="34.0566" y="6.00781" width="98.1099" height="39.9922" filterUnits="userSpaceOnUse" color-interpolation-filters="sRGB">
<feFlood flood-opacity="0" result="BackgroundImageFix"/>
<feColorMatrix in="SourceAlpha" type="matrix" values="0 0 0 0 0 0 0 0 0 0 0 0 0 0 0 0 0 0 127 0"/>
<feOffset dy="4"/>
<feGaussianBlur stdDeviation="2"/>
<feColorMatrix type="matrix" values="0 0 0 0 0 0 0 0 0 0 0 0 0 0 0 0 0 0 0.25 0"/>
<feBlend mode="normal" in2="BackgroundImageFix" result="effect1_dropShadow"/>
<feBlend mode="normal" in="SourceGraphic" in2="effect1_dropShadow" result="shape"/>
</filter>
</defs>
</svg>
