<svg height="424pt" viewBox="-42 0 424 424.30014" width="424pt" xmlns="http://www.w3.org/2000/svg"><path d="m46.148438 137.300781c-14.414063 7.5-31.582032 7.5-46 0v257c.050781 16.546875 13.453124 29.949219 30 30h26c-6.5-8.648437-10.007813-19.179687-10-30zm0 0"/><path d="m288.949219 129.699219v-46.800781c.035156-26.429688-12.554688-51.292969-33.878907-66.910157-21.328124-15.613281-48.832031-20.105469-74.019531-12.089843-25.1875-8.015626-52.691406-3.523438-74.019531 12.089843-21.328125 15.617188-33.917969 40.480469-33.882812 66.910157v46.800781h-7v264.601562c.050781 16.546875 13.453124 29.949219 30 30h214c16.550781-.050781 29.953124-13.453125 30-30v-264.601562zm-165.898438 0h-30v-46.800781c.035157-33.175782 25.792969-60.640626 58.898438-62.796876-18.316407 15.726563-28.871094 38.65625-28.898438 62.796876zm20-46.800781c.019531-25.085938 14.898438-47.777344 37.898438-57.796876 23.019531 9.996094 37.910156 32.703126 37.902343 57.796876v46.800781h-75.902343v-46.800781zm97.199219 206.203124h-68.101562c-5.519532 0-10-4.480468-10-10 0-5.523437 4.480468-10 10-10h68.101562c5.523438 0 10 4.476563 10 10 0 5.519532-4.476562 10-10 10zm28.699219-159.402343h-30v-46.800781c.015625-24.152344-10.542969-47.101563-28.898438-62.796876 33.089844 2.191407 58.828125 29.636719 58.898438 62.796876zm0 0"/></svg>