<svg height="511pt" viewBox="0 0 511.99982 511" width="511pt" xmlns="http://www.w3.org/2000/svg"><path d="m336.328125 136v-80.335938c0-22.089843-18.070313-40.164062-40.160156-40.164062h-241c-22.09375 0-40.167969 18.074219-40.167969 40.164062v313.300782h255.289062zm0 0" fill="#fef4f5"/><path d="m296.167969 15.5h-120.503907v353.464844h94.625l66.039063-232.964844v-80.335938c0-22.089843-18.070313-40.164062-40.160156-40.164062zm0 0" fill="#d5eded"/><path d="m296.167969.5h-241c-30.421875 0-55.167969 24.746094-55.167969 55.164062v401.667969c0 30.417969 24.746094 55.164063 55.167969 55.164063h178.6875c6.707031 0 12.601562-4.453125 14.429687-10.90625l36.4375-128.535156 66.039063-232.964844c.378906-1.332032.566406-2.707032.566406-4.089844v-80.335938c0-30.417968-24.742187-55.164062-55.160156-55.164062zm25.164062 133.414062-62.378906 220.050782h-228.953125v-298.300782c0-13.875 11.289062-25.164062 25.167969-25.164062h241c13.875 0 25.164062 11.289062 25.164062 25.164062zm0 0" fill="#00acb3"/><path d="m296.167969.5h-120.503907v30h120.503907c13.875 0 25.164062 11.289062 25.164062 25.164062v78.25l-62.378906 220.050782h-83.289063v158.53125h58.191407c6.707031 0 12.601562-4.453125 14.429687-10.90625l36.4375-128.535156 66.039063-232.964844c.378906-1.332032.566406-2.707032.566406-4.089844v-80.335938c0-30.417968-24.742187-55.164062-55.160156-55.164062zm0 0" fill="#008186"/><path d="m511.933594 456.691406-12.054688-281.21875c-.003906-.035156-.003906-.070312-.007812-.105468-1.492188-29.976563-27.132813-54.367188-57.152344-54.367188h-192.796875c-30.019531 0-55.65625 24.390625-57.152344 54.367188-.003906.035156-.003906.070312-.007812.105468l-12.050781 281.21875c-.722657 14.792969 4.425781 28.769532 14.5 39.359375 10.085937 10.605469 23.8125 16.445313 38.644531 16.445313h224.933593c14.832032 0 28.554688-5.839844 38.644532-16.445313 10.074218-10.589843 15.222656-24.5625 14.5-39.359375zm0 0" fill="#54e360"/><path d="m511.933594 456.691406-12.054688-281.21875c-.003906-.035156-.003906-.070312-.007812-.105468-1.492188-29.976563-27.132813-54.367188-57.152344-54.367188h-96.398438v391.496094h112.46875c14.832032 0 28.554688-5.839844 38.644532-16.441406 10.074218-10.59375 15.222656-24.566407 14.5-39.363282zm0 0" fill="#00ab5e"/><path d="m346.320312 311.664062c-41.492187 0-75.25-33.757812-75.25-75.25v-20.082031c0-8.285156 6.71875-15 15-15 8.285157 0 15 6.714844 15 15v20.082031c0 24.953126 20.296876 45.25 45.25 45.25 24.949219 0 45.25-20.296874 45.25-45.25v-20.082031c0-8.285156 6.714844-15 15-15 8.285157 0 15 6.714844 15 15v20.082031c0 41.492188-33.757812 75.25-75.25 75.25zm0 0" fill="#fef4f5"/><path d="m406.570312 201.332031c-8.285156 0-15 6.714844-15 15v20.082031c0 24.953126-20.300781 45.25-45.25 45.25v30c41.492188 0 75.25-33.757812 75.25-75.25v-20.082031c0-8.285156-6.714843-15-15-15zm0 0" fill="#d5eded"/></svg>