<svg width="297" height="56" viewBox="0 0 297 56" fill="none" xmlns="http://www.w3.org/2000/svg">
<rect width="297" height="56" fill="#FFBFBF"/>
<g filter="url(#filter0_i)">
<path d="M90.2412 33.4043C90.2412 32.5742 89.9482 31.9395 89.3623 31.5C88.7764 31.0508 87.7217 30.582 86.1982 30.0938C84.6748 29.5957 83.4688 29.1074 82.5801 28.6289C80.1582 27.3203 78.9473 25.5576 78.9473 23.3408C78.9473 22.1885 79.2695 21.1631 79.9141 20.2646C80.5684 19.3564 81.501 18.6484 82.7119 18.1406C83.9326 17.6328 85.2998 17.3789 86.8135 17.3789C88.3369 17.3789 89.6943 17.6572 90.8857 18.2139C92.0771 18.7607 93 19.5371 93.6543 20.543C94.3184 21.5488 94.6504 22.6914 94.6504 23.9707H90.2559C90.2559 22.9941 89.9482 22.2373 89.333 21.7002C88.7178 21.1533 87.8535 20.8799 86.7402 20.8799C85.666 20.8799 84.8311 21.1094 84.2354 21.5684C83.6396 22.0176 83.3418 22.6133 83.3418 23.3555C83.3418 24.0488 83.6885 24.6299 84.3818 25.0986C85.085 25.5674 86.1152 26.0068 87.4727 26.417C89.9727 27.1689 91.7939 28.1016 92.9365 29.2148C94.0791 30.3281 94.6504 31.7148 94.6504 33.375C94.6504 35.2207 93.9521 36.6709 92.5557 37.7256C91.1592 38.7705 89.2793 39.293 86.916 39.293C85.2754 39.293 83.7812 38.9951 82.4336 38.3994C81.0859 37.7939 80.0557 36.9688 79.3428 35.9238C78.6396 34.8789 78.2881 33.668 78.2881 32.291H82.6973C82.6973 34.6445 84.1035 35.8213 86.916 35.8213C87.9609 35.8213 88.7764 35.6113 89.3623 35.1914C89.9482 34.7617 90.2412 34.166 90.2412 33.4043ZM115.158 28.8193C115.158 30.9189 114.787 32.7598 114.045 34.3418C113.303 35.9238 112.238 37.1445 110.852 38.0039C109.475 38.8633 107.893 39.293 106.105 39.293C104.338 39.293 102.761 38.8682 101.374 38.0186C99.9873 37.1689 98.9131 35.958 98.1514 34.3857C97.3896 32.8037 97.0039 30.9873 96.9941 28.9365V27.8818C96.9941 25.7822 97.3701 23.9365 98.1221 22.3447C98.8838 20.7432 99.9531 19.5176 101.33 18.668C102.717 17.8086 104.299 17.3789 106.076 17.3789C107.854 17.3789 109.431 17.8086 110.808 18.668C112.194 19.5176 113.264 20.7432 114.016 22.3447C114.777 23.9365 115.158 25.7773 115.158 27.8672V28.8193ZM110.705 27.8525C110.705 25.6162 110.305 23.917 109.504 22.7549C108.703 21.5928 107.561 21.0117 106.076 21.0117C104.602 21.0117 103.464 21.5879 102.663 22.7402C101.862 23.8828 101.457 25.5625 101.447 27.7793V28.8193C101.447 30.9971 101.848 32.6865 102.648 33.8877C103.449 35.0889 104.602 35.6895 106.105 35.6895C107.58 35.6895 108.713 35.1133 109.504 33.9609C110.295 32.7988 110.695 31.1094 110.705 28.8926V27.8525ZM122.746 35.4697H132.077V39H118.352V17.6719H122.746V35.4697ZM134.611 39V17.6719H141.174C143.049 17.6719 144.724 18.0967 146.198 18.9463C147.683 19.7861 148.84 20.9873 149.67 22.5498C150.5 24.1025 150.915 25.8701 150.915 27.8525V28.834C150.915 30.8164 150.505 32.5791 149.685 34.1221C148.874 35.665 147.727 36.8613 146.242 37.7109C144.758 38.5605 143.083 38.9902 141.218 39H134.611ZM139.006 21.2314V35.4697H141.13C142.849 35.4697 144.162 34.9082 145.07 33.7852C145.979 32.6621 146.442 31.0557 146.462 28.9658V27.8379C146.462 25.6699 146.013 24.0293 145.114 22.916C144.216 21.793 142.902 21.2314 141.174 21.2314H139.006ZM179.113 28.8193C179.113 30.9189 178.742 32.7598 178 34.3418C177.258 35.9238 176.193 37.1445 174.807 38.0039C173.43 38.8633 171.848 39.293 170.061 39.293C168.293 39.293 166.716 38.8682 165.329 38.0186C163.942 37.1689 162.868 35.958 162.106 34.3857C161.345 32.8037 160.959 30.9873 160.949 28.9365V27.8818C160.949 25.7822 161.325 23.9365 162.077 22.3447C162.839 20.7432 163.908 19.5176 165.285 18.668C166.672 17.8086 168.254 17.3789 170.031 17.3789C171.809 17.3789 173.386 17.8086 174.763 18.668C176.149 19.5176 177.219 20.7432 177.971 22.3447C178.732 23.9365 179.113 25.7773 179.113 27.8672V28.8193ZM174.66 27.8525C174.66 25.6162 174.26 23.917 173.459 22.7549C172.658 21.5928 171.516 21.0117 170.031 21.0117C168.557 21.0117 167.419 21.5879 166.618 22.7402C165.817 23.8828 165.412 25.5625 165.402 27.7793V28.8193C165.402 30.9971 165.803 32.6865 166.604 33.8877C167.404 35.0889 168.557 35.6895 170.061 35.6895C171.535 35.6895 172.668 35.1133 173.459 33.9609C174.25 32.7988 174.65 31.1094 174.66 28.8926V27.8525ZM198.449 17.6719V31.7197C198.449 34.0537 197.717 35.8994 196.252 37.2568C194.797 38.6143 192.805 39.293 190.275 39.293C187.785 39.293 185.808 38.6338 184.343 37.3154C182.878 35.9971 182.131 34.1855 182.102 31.8809V17.6719H186.496V31.749C186.496 33.1455 186.828 34.166 187.492 34.8105C188.166 35.4453 189.094 35.7627 190.275 35.7627C192.746 35.7627 194.001 34.4639 194.04 31.8662V17.6719H198.449ZM218.107 21.2314H211.574V39H207.18V21.2314H200.734V17.6719H218.107V21.2314Z" fill="#B71E1E"/>
</g>
<path d="M89.3623 31.5L88.7538 32.2937L88.7623 32.3L89.3623 31.5ZM86.1982 30.0938L85.8875 31.0443L85.893 31.046L86.1982 30.0938ZM82.5801 28.6289L82.1047 29.5087L82.106 29.5094L82.5801 28.6289ZM79.9141 20.2646L79.1027 19.6801L79.1015 19.6817L79.9141 20.2646ZM82.7119 18.1406L82.3278 17.2173L82.3252 17.2184L82.7119 18.1406ZM90.8857 18.2139L90.4624 19.1199L90.4686 19.1227L90.8857 18.2139ZM93.6543 20.543L92.816 21.0883L92.8198 21.0939L93.6543 20.543ZM94.6504 23.9707V24.9707H95.6504V23.9707H94.6504ZM90.2559 23.9707H89.2559V24.9707H90.2559V23.9707ZM89.333 21.7002L88.6686 22.4476L88.6754 22.4535L89.333 21.7002ZM84.2354 21.5684L84.8375 22.3668L84.8457 22.3605L84.2354 21.5684ZM84.3818 25.0986L83.8218 25.9271L83.8271 25.9307L84.3818 25.0986ZM87.4727 26.417L87.1834 27.3742L87.1846 27.3746L87.4727 26.417ZM92.5557 37.7256L93.1548 38.5263L93.1583 38.5236L92.5557 37.7256ZM82.4336 38.3994L82.0238 39.3116L82.0293 39.314L82.4336 38.3994ZM79.3428 35.9238L78.5131 36.4821L78.5167 36.4874L79.3428 35.9238ZM78.2881 32.291V31.291H77.2881V32.291H78.2881ZM82.6973 32.291H83.6973V31.291H82.6973V32.291ZM89.3623 35.1914L89.9449 36.0043L89.9537 35.9978L89.3623 35.1914ZM91.2412 33.4043C91.2412 32.3075 90.8361 31.3554 89.9623 30.7L88.7623 32.3C89.0604 32.5235 89.2412 32.841 89.2412 33.4043H91.2412ZM89.9707 30.7064C89.2376 30.1443 88.0389 29.6336 86.5035 29.1415L85.893 31.046C87.4045 31.5305 88.3151 31.9572 88.7539 32.2936L89.9707 30.7064ZM86.509 29.1433C85.0133 28.6543 83.8694 28.1874 83.0542 27.7484L82.106 29.5094C83.0681 30.0274 84.3364 30.5371 85.8875 31.0442L86.509 29.1433ZM83.0554 27.7491C80.8644 26.5652 79.9473 25.096 79.9473 23.3408H77.9473C77.9473 26.0193 79.452 28.0754 82.1047 29.5087L83.0554 27.7491ZM79.9473 23.3408C79.9473 22.3882 80.2093 21.5686 80.7266 20.8476L79.1015 19.6817C78.3297 20.7576 77.9473 21.9887 77.9473 23.3408H79.9473ZM80.7254 20.8492C81.2546 20.1147 82.0278 19.5119 83.0986 19.0628L82.3252 17.2184C80.9741 17.785 79.8822 18.5982 79.1027 19.6801L80.7254 20.8492ZM83.096 19.0639C84.1786 18.6136 85.4127 18.3789 86.8135 18.3789V16.3789C85.1869 16.3789 83.6866 16.6521 82.3278 17.2173L83.096 19.0639ZM86.8135 18.3789C88.2137 18.3789 89.423 18.6342 90.4625 19.1199L91.309 17.3079C89.9657 16.6802 88.4601 16.3789 86.8135 16.3789V18.3789ZM90.4686 19.1227C91.5046 19.5982 92.2744 20.2555 92.816 21.0882L94.4926 19.9977C93.7256 18.8187 92.6497 17.9233 91.3029 17.305L90.4686 19.1227ZM92.8198 21.0939C93.3691 21.9261 93.6504 22.8747 93.6504 23.9707H95.6504C95.6504 22.5082 95.2676 21.1716 94.4888 19.992L92.8198 21.0939ZM94.6504 22.9707H90.2559V24.9707H94.6504V22.9707ZM91.2559 23.9707C91.2559 22.7673 90.8661 21.7111 89.9907 20.9469L88.6754 22.4535C89.0304 22.7635 89.2559 23.221 89.2559 23.9707H91.2559ZM89.9974 20.9528C89.143 20.1933 88.0112 19.8799 86.7402 19.8799V21.8799C87.6958 21.8799 88.2926 22.1133 88.6686 22.4476L89.9974 20.9528ZM86.7402 19.8799C85.5371 19.8799 84.4567 20.1354 83.625 20.7762L84.8457 22.3605C85.2055 22.0833 85.7949 21.8799 86.7402 21.8799V19.8799ZM83.6333 20.7699C82.7885 21.4069 82.3418 22.2975 82.3418 23.3555H84.3418C84.3418 22.9291 84.4908 22.6282 84.8374 22.3668L83.6333 20.7699ZM82.3418 23.3555C82.3418 24.4525 82.9185 25.3164 83.8218 25.9271L84.9419 24.2702C84.4585 23.9434 84.3418 23.6452 84.3418 23.3555H82.3418ZM83.8271 25.9307C84.6489 26.4785 85.7864 26.9521 87.1834 27.3742L87.7619 25.4597C86.4441 25.0615 85.521 24.6563 84.9365 24.2666L83.8271 25.9307ZM87.1846 27.3746C89.6175 28.1064 91.2623 28.9798 92.2387 29.9311L93.6344 28.4986C92.3256 27.2234 90.3278 26.2315 87.7607 25.4594L87.1846 27.3746ZM92.2387 29.9311C93.1794 30.8477 93.6504 31.9723 93.6504 33.375H95.6504C95.6504 31.4574 94.9788 29.8085 93.6344 28.4986L92.2387 29.9311ZM93.6504 33.375C93.6504 34.9271 93.0837 36.0736 91.953 36.9276L93.1583 38.5236C94.8206 37.2682 95.6504 35.5143 95.6504 33.375H93.6504ZM91.9566 36.9249C90.7851 37.8014 89.139 38.293 86.916 38.293V40.293C89.4196 40.293 91.5332 39.7396 93.1548 38.5263L91.9566 36.9249ZM86.916 38.293C85.3988 38.293 84.0444 38.0181 82.8379 37.4848L82.0293 39.314C83.5181 39.9721 85.152 40.293 86.916 40.293V38.293ZM82.8434 37.4872C81.6353 36.9445 80.7614 36.2288 80.1688 35.3603L78.5167 36.4874C79.3499 37.7087 80.5366 38.6434 82.0238 39.3116L82.8434 37.4872ZM80.1724 35.3656C79.5907 34.501 79.2881 33.4885 79.2881 32.291H77.2881C77.2881 33.8475 77.6886 35.2568 78.5131 36.4821L80.1724 35.3656ZM78.2881 33.291H82.6973V31.291H78.2881V33.291ZM81.6973 32.291C81.6973 33.6733 82.1187 34.876 83.1102 35.7056C84.0675 36.5067 85.3947 36.8213 86.916 36.8213V34.8213C85.6248 34.8213 84.8426 34.5475 84.3937 34.1718C83.9789 33.8247 83.6973 33.2622 83.6973 32.291H81.6973ZM86.916 36.8213C88.0799 36.8213 89.1282 36.5895 89.9448 36.0042L88.7798 34.3786C88.4246 34.6332 87.842 34.8213 86.916 34.8213V36.8213ZM89.9537 35.9978C90.8107 35.3693 91.2412 34.4665 91.2412 33.4043H89.2412C89.2412 33.8656 89.0858 34.1541 88.7709 34.385L89.9537 35.9978ZM110.852 38.0039L110.325 37.1539L110.322 37.1556L110.852 38.0039ZM98.1514 34.3857L97.2504 34.8196L97.2514 34.8217L98.1514 34.3857ZM96.9941 28.9365L95.9941 28.9365L95.9942 28.9413L96.9941 28.9365ZM98.1221 22.3447L97.219 21.9152L97.2179 21.9176L98.1221 22.3447ZM101.33 18.668L101.855 19.519L101.857 19.518L101.33 18.668ZM110.808 18.668L110.278 19.5163L110.285 19.5207L110.808 18.668ZM114.016 22.3447L113.11 22.7697L113.114 22.7764L114.016 22.3447ZM109.504 22.7549L108.68 23.3223L109.504 22.7549ZM102.663 22.7402L103.482 23.3142L103.484 23.3109L102.663 22.7402ZM101.447 27.7793L100.447 27.7749V27.7793H101.447ZM109.504 33.9609L110.328 34.5269L110.331 34.5236L109.504 33.9609ZM110.705 28.8926L111.705 28.897V28.8926H110.705ZM114.158 28.8193C114.158 30.8013 113.808 32.492 113.14 33.9171L114.95 34.7665C115.766 33.0275 116.158 31.0366 116.158 28.8193H114.158ZM113.14 33.9171C112.474 35.3367 111.535 36.404 110.325 37.1539L111.378 38.8539C112.942 37.8851 114.132 36.5109 114.95 34.7665L113.14 33.9171ZM110.322 37.1556C109.12 37.906 107.725 38.293 106.105 38.293V40.293C108.06 40.293 109.829 39.8206 111.381 38.8522L110.322 37.1556ZM106.105 38.293C104.506 38.293 103.112 37.9108 101.896 37.1659L100.852 38.8712C102.409 39.8255 104.17 40.293 106.105 40.293V38.293ZM101.896 37.1659C100.685 36.4237 99.7361 35.3632 99.0513 33.9497L97.2514 34.8217C98.0901 36.5528 99.2896 37.9142 100.852 38.8712L101.896 37.1659ZM99.0524 33.9519C98.3651 32.5245 98.0033 30.8588 97.9941 28.9318L95.9942 28.9413C96.0045 31.1158 96.4142 33.0829 97.2504 34.8196L99.0524 33.9519ZM97.9941 28.9365V27.8818H95.9941V28.9365H97.9941ZM97.9941 27.8818C97.9941 25.9018 98.3484 24.2068 99.0263 22.7719L97.2179 21.9176C96.3918 23.6662 95.9941 25.6626 95.9941 27.8818H97.9941ZM99.0251 22.7742C99.7124 21.3293 100.658 20.2578 101.855 19.519L100.805 17.8169C99.2484 18.7774 98.0552 20.1571 97.219 21.9152L99.0251 22.7742ZM101.857 19.518C103.071 18.7654 104.468 18.3789 106.076 18.3789V16.3789C104.13 16.3789 102.362 16.8518 100.803 17.818L101.857 19.518ZM106.076 18.3789C107.685 18.3789 109.075 18.7654 110.278 19.5163L111.337 17.8196C109.786 16.8518 108.022 16.3789 106.076 16.3789V18.3789ZM110.285 19.5207C111.491 20.2592 112.434 21.3288 113.11 22.7697L114.921 21.9197C114.093 20.1575 112.898 18.776 111.33 17.8153L110.285 19.5207ZM113.114 22.7764C113.8 24.2108 114.158 25.8995 114.158 27.8672H116.158C116.158 25.6552 115.755 23.6622 114.918 21.9131L113.114 22.7764ZM114.158 27.8672V28.8193H116.158V27.8672H114.158ZM111.705 27.8525C111.705 25.5227 111.292 23.5881 110.327 22.1875L108.68 23.3223C109.317 24.2459 109.705 25.7098 109.705 27.8525H111.705ZM110.327 22.1875C109.329 20.7383 107.869 20.0117 106.076 20.0117V22.0117C107.252 22.0117 108.078 22.4473 108.68 23.3223L110.327 22.1875ZM106.076 20.0117C104.294 20.0117 102.841 20.7325 101.842 22.1696L103.484 23.3109C104.087 22.4433 104.909 22.0117 106.076 22.0117V20.0117ZM101.844 22.1663C100.876 23.5479 100.457 25.4648 100.447 27.7749L102.447 27.7837C102.457 25.6602 102.849 24.2178 103.482 23.3142L101.844 22.1663ZM100.447 27.7793V28.8193H102.447V27.7793H100.447ZM100.447 28.8193C100.447 31.1005 100.864 33.0131 101.816 34.4424L103.48 33.333C102.832 32.3599 102.447 30.8936 102.447 28.8193H100.447ZM101.816 34.4424C102.812 35.9354 104.284 36.6895 106.105 36.6895V34.6895C104.919 34.6895 104.087 34.2423 103.48 33.333L101.816 34.4424ZM106.105 36.6895C107.888 36.6895 109.339 35.9682 110.328 34.5269L108.679 33.395C108.087 34.2584 107.272 34.6895 106.105 34.6895V36.6895ZM110.331 34.5236C111.281 33.127 111.695 31.2072 111.705 28.897L109.705 28.8882C109.696 31.0116 109.309 32.4707 108.677 33.3982L110.331 34.5236ZM111.705 28.8926V27.8525H109.705V28.8926H111.705ZM122.746 35.4697H121.746V36.4697H122.746V35.4697ZM132.077 35.4697H133.077V34.4697H132.077V35.4697ZM132.077 39V40H133.077V39H132.077ZM118.352 39H117.352V40H118.352V39ZM118.352 17.6719V16.6719H117.352V17.6719H118.352ZM122.746 17.6719H123.746V16.6719H122.746V17.6719ZM122.746 36.4697H132.077V34.4697H122.746V36.4697ZM131.077 35.4697V39H133.077V35.4697H131.077ZM132.077 38H118.352V40H132.077V38ZM119.352 39V17.6719H117.352V39H119.352ZM118.352 18.6719H122.746V16.6719H118.352V18.6719ZM121.746 17.6719V35.4697H123.746V17.6719H121.746ZM134.611 39H133.611V40H134.611V39ZM134.611 17.6719V16.6719H133.611V17.6719H134.611ZM146.198 18.9463L145.699 19.8128L145.706 19.8166L146.198 18.9463ZM149.67 22.5498L148.787 23.019L148.788 23.0213L149.67 22.5498ZM149.685 34.1221L148.802 33.6526L148.799 33.657L149.685 34.1221ZM141.218 39L141.218 40L141.223 40L141.218 39ZM139.006 21.2314V20.2314H138.006V21.2314H139.006ZM139.006 35.4697H138.006V36.4697H139.006V35.4697ZM146.462 28.9658L147.462 28.9752V28.9658H146.462ZM145.114 22.916L144.333 23.5407L144.336 23.544L145.114 22.916ZM135.611 39V17.6719H133.611V39H135.611ZM134.611 18.6719H141.174V16.6719H134.611V18.6719ZM141.174 18.6719C142.892 18.6719 144.391 19.0593 145.699 19.8128L146.697 18.0798C145.056 17.134 143.206 16.6719 141.174 16.6719V18.6719ZM145.706 19.8166C147.018 20.5591 148.043 21.618 148.787 23.019L150.553 22.0806C149.637 20.3566 148.347 19.0132 146.691 18.0759L145.706 19.8166ZM148.788 23.0213C149.531 24.4115 149.915 26.0136 149.915 27.8525H151.915C151.915 25.7266 151.469 23.7936 150.552 22.0784L148.788 23.0213ZM149.915 27.8525V28.834H151.915V27.8525H149.915ZM149.915 28.834C149.915 30.675 149.535 32.2727 148.802 33.6526L150.568 34.5915C151.475 32.8855 151.915 30.9578 151.915 28.834H149.915ZM148.799 33.657C148.075 35.0349 147.061 36.0899 145.745 36.843L146.739 38.5788C148.392 37.6328 149.673 36.2952 150.57 34.5871L148.799 33.657ZM145.745 36.843C144.424 37.5993 142.921 37.9911 141.213 38L141.223 40C143.245 39.9894 145.092 39.5218 146.739 38.5788L145.745 36.843ZM141.218 38H134.611V40H141.218V38ZM138.006 21.2314V35.4697H140.006V21.2314H138.006ZM139.006 36.4697H141.13V34.4697H139.006V36.4697ZM141.13 36.4697C143.087 36.4697 144.713 35.8173 145.848 34.414L144.293 33.1563C143.611 33.9991 142.61 34.4697 141.13 34.4697V36.4697ZM145.848 34.414C146.949 33.0521 147.441 31.1928 147.462 28.9752L145.462 28.9565C145.444 30.9185 145.008 32.2722 144.293 33.1563L145.848 34.414ZM147.462 28.9658V27.8379H145.462V28.9658H147.462ZM147.462 27.8379C147.462 25.5539 146.992 23.6504 145.892 22.288L144.336 23.544C145.033 24.4082 145.462 25.7859 145.462 27.8379H147.462ZM145.895 22.2913C144.768 20.8825 143.138 20.2314 141.174 20.2314V22.2314C142.667 22.2314 143.664 22.7034 144.333 23.5407L145.895 22.2913ZM141.174 20.2314H139.006V22.2314H141.174V20.2314ZM174.807 38.0039L174.28 37.1539L174.277 37.1556L174.807 38.0039ZM162.106 34.3857L161.205 34.8196L161.206 34.8217L162.106 34.3857ZM160.949 28.9365L159.949 28.9365L159.949 28.9413L160.949 28.9365ZM162.077 22.3447L161.174 21.9152L161.173 21.9176L162.077 22.3447ZM165.285 18.668L165.81 19.519L165.812 19.518L165.285 18.668ZM174.763 18.668L174.233 19.5163L174.24 19.5207L174.763 18.668ZM177.971 22.3447L177.065 22.7697L177.069 22.7764L177.971 22.3447ZM173.459 22.7549L172.636 23.3223L173.459 22.7549ZM166.618 22.7402L167.437 23.3142L167.439 23.3109L166.618 22.7402ZM165.402 27.7793L164.402 27.7749V27.7793H165.402ZM173.459 33.9609L174.283 34.5269L174.286 34.5236L173.459 33.9609ZM174.66 28.8926L175.66 28.897V28.8926H174.66ZM178.113 28.8193C178.113 30.8013 177.763 32.492 177.095 33.9171L178.905 34.7665C179.721 33.0275 180.113 31.0366 180.113 28.8193H178.113ZM177.095 33.9171C176.429 35.3367 175.49 36.404 174.28 37.1539L175.333 38.8539C176.897 37.8851 178.087 36.5109 178.905 34.7665L177.095 33.9171ZM174.277 37.1556C173.075 37.906 171.68 38.293 170.061 38.293V40.293C172.015 40.293 173.785 39.8206 175.336 38.8522L174.277 37.1556ZM170.061 38.293C168.461 38.293 167.067 37.9108 165.852 37.1659L164.807 38.8712C166.364 39.8255 168.125 40.293 170.061 40.293V38.293ZM165.852 37.1659C164.64 36.4237 163.691 35.3632 163.006 33.9497L161.206 34.8217C162.045 36.5528 163.245 37.9142 164.807 38.8712L165.852 37.1659ZM163.007 33.9519C162.32 32.5245 161.958 30.8588 161.949 28.9318L159.949 28.9413C159.96 31.1158 160.369 33.0829 161.205 34.8196L163.007 33.9519ZM161.949 28.9365V27.8818H159.949V28.9365H161.949ZM161.949 27.8818C161.949 25.9018 162.303 24.2068 162.981 22.7719L161.173 21.9176C160.347 23.6662 159.949 25.6626 159.949 27.8818H161.949ZM162.98 22.7742C163.667 21.3293 164.613 20.2578 165.81 19.519L164.76 17.8169C163.203 18.7774 162.01 20.1571 161.174 21.9152L162.98 22.7742ZM165.812 19.518C167.026 18.7654 168.423 18.3789 170.031 18.3789V16.3789C168.085 16.3789 166.317 16.8518 164.758 17.818L165.812 19.518ZM170.031 18.3789C171.64 18.3789 173.03 18.7654 174.233 19.5163L175.292 17.8196C173.741 16.8518 171.977 16.3789 170.031 16.3789V18.3789ZM174.24 19.5207C175.446 20.2592 176.389 21.3288 177.066 22.7697L178.876 21.9197C178.049 20.1575 176.853 18.776 175.285 17.8153L174.24 19.5207ZM177.069 22.7764C177.755 24.2108 178.113 25.8995 178.113 27.8672H180.113C180.113 25.6552 179.71 23.6622 178.873 21.9131L177.069 22.7764ZM178.113 27.8672V28.8193H180.113V27.8672H178.113ZM175.66 27.8525C175.66 25.5227 175.248 23.5881 174.282 22.1875L172.636 23.3223C173.272 24.2459 173.66 25.7098 173.66 27.8525H175.66ZM174.282 22.1875C173.284 20.7383 171.824 20.0117 170.031 20.0117V22.0117C171.207 22.0117 172.033 22.4473 172.636 23.3223L174.282 22.1875ZM170.031 20.0117C168.249 20.0117 166.796 20.7325 165.797 22.1696L167.439 23.3109C168.042 22.4433 168.864 22.0117 170.031 22.0117V20.0117ZM165.799 22.1663C164.831 23.5479 164.413 25.4648 164.402 27.7749L166.402 27.7837C166.412 25.6602 166.804 24.2178 167.437 23.3142L165.799 22.1663ZM164.402 27.7793V28.8193H166.402V27.7793H164.402ZM164.402 28.8193C164.402 31.1005 164.819 33.0131 165.771 34.4424L167.436 33.333C166.787 32.3599 166.402 30.8936 166.402 28.8193H164.402ZM165.771 34.4424C166.767 35.9354 168.239 36.6895 170.061 36.6895V34.6895C168.874 34.6895 168.042 34.2423 167.436 33.333L165.771 34.4424ZM170.061 36.6895C171.843 36.6895 173.294 35.9682 174.283 34.5269L172.635 33.395C172.042 34.2584 171.227 34.6895 170.061 34.6895V36.6895ZM174.286 34.5236C175.236 33.127 175.65 31.2072 175.66 28.897L173.66 28.8882C173.651 31.0116 173.264 32.4707 172.632 33.3982L174.286 34.5236ZM175.66 28.8926V27.8525H173.66V28.8926H175.66ZM198.449 17.6719H199.449V16.6719H198.449V17.6719ZM196.252 37.2568L195.572 36.5233L195.57 36.5256L196.252 37.2568ZM182.102 31.8809L181.101 31.8809L181.102 31.8936L182.102 31.8809ZM182.102 17.6719V16.6719H181.102V17.6719H182.102ZM186.496 17.6719H187.496V16.6719H186.496V17.6719ZM187.492 34.8105L186.796 35.5281L186.801 35.5333L186.806 35.5384L187.492 34.8105ZM194.04 31.8662L195.04 31.8812L195.04 31.8737V31.8662H194.04ZM194.04 17.6719V16.6719H193.04V17.6719H194.04ZM197.449 17.6719V31.7197H199.449V17.6719H197.449ZM197.449 31.7197C197.449 33.8266 196.798 35.3874 195.572 36.5233L196.932 37.9903C198.636 36.4114 199.449 34.2808 199.449 31.7197H197.449ZM195.57 36.5256C194.346 37.6671 192.623 38.293 190.275 38.293V40.293C192.987 40.293 195.248 39.5614 196.934 37.9881L195.57 36.5256ZM190.275 38.293C187.965 38.293 186.248 37.6851 185.012 36.5721L183.674 38.0587C185.367 39.5825 187.606 40.293 190.275 40.293V38.293ZM185.012 36.5721C183.79 35.4724 183.128 33.9455 183.101 31.8681L181.102 31.8936C181.134 34.4256 181.966 36.5217 183.674 38.0587L185.012 36.5721ZM183.102 31.8809V17.6719H181.102V31.8809H183.102ZM182.102 18.6719H186.496V16.6719H182.102V18.6719ZM185.496 17.6719V31.749H187.496V17.6719H185.496ZM185.496 31.749C185.496 33.2796 185.858 34.6178 186.796 35.5281L188.189 34.093C187.798 33.7142 187.496 33.0114 187.496 31.749H185.496ZM186.806 35.5384C187.713 36.3925 188.912 36.7627 190.275 36.7627V34.7627C189.275 34.7627 188.619 34.4982 188.178 34.0827L186.806 35.5384ZM190.275 36.7627C191.679 36.7627 192.912 36.3911 193.789 35.4834C194.657 34.5847 195.018 33.3233 195.04 31.8812L193.04 31.8512C193.023 33.0068 192.737 33.6936 192.35 34.0937C191.972 34.4849 191.342 34.7627 190.275 34.7627V36.7627ZM195.04 31.8662V17.6719H193.04V31.8662H195.04ZM194.04 18.6719H198.449V16.6719H194.04V18.6719ZM218.107 21.2314V22.2314H219.107V21.2314H218.107ZM211.574 21.2314V20.2314H210.574V21.2314H211.574ZM211.574 39V40H212.574V39H211.574ZM207.18 39H206.18V40H207.18V39ZM207.18 21.2314H208.18V20.2314H207.18V21.2314ZM200.734 21.2314H199.734V22.2314H200.734V21.2314ZM200.734 17.6719V16.6719H199.734V17.6719H200.734ZM218.107 17.6719H219.107V16.6719H218.107V17.6719ZM218.107 20.2314H211.574V22.2314H218.107V20.2314ZM210.574 21.2314V39H212.574V21.2314H210.574ZM211.574 38H207.18V40H211.574V38ZM208.18 39V21.2314H206.18V39H208.18ZM207.18 20.2314H200.734V22.2314H207.18V20.2314ZM201.734 21.2314V17.6719H199.734V21.2314H201.734ZM200.734 18.6719H218.107V16.6719H200.734V18.6719ZM217.107 17.6719V21.2314H219.107V17.6719H217.107Z" fill="black"/>
<defs>
<filter id="filter0_i" x="77.2881" y="16.3789" width="141.819" height="27.9141" filterUnits="userSpaceOnUse" color-interpolation-filters="sRGB">
<feFlood flood-opacity="0" result="BackgroundImageFix"/>
<feBlend mode="normal" in="SourceGraphic" in2="BackgroundImageFix" result="shape"/>
<feColorMatrix in="SourceAlpha" type="matrix" values="0 0 0 0 0 0 0 0 0 0 0 0 0 0 0 0 0 0 127 0" result="hardAlpha"/>
<feOffset dy="4"/>
<feGaussianBlur stdDeviation="2"/>
<feComposite in2="hardAlpha" operator="arithmetic" k2="-1" k3="1"/>
<feColorMatrix type="matrix" values="0 0 0 0 0 0 0 0 0 0 0 0 0 0 0 0 0 0 0.25 0"/>
<feBlend mode="normal" in2="shape" result="effect1_innerShadow"/>
</filter>
</defs>
</svg>
