<svg width="267" height="267" viewBox="0 0 267 267" fill="none" xmlns="http://www.w3.org/2000/svg">
<rect width="267" height="267" rx="50" fill="#333333"/>
<path fill-rule="evenodd" clip-rule="evenodd" d="M154.696 136.044L163.972 139.821C171.065 142.709 179.207 140.069 183.257 133.569L200.894 105.256L187.791 188.41C185.615 189.558 183.629 191.12 181.959 193.065L164.197 213.745C159.28 220.175 149.051 215.534 150.652 207.598L156.104 180.583C156.926 176.508 155.894 172.279 153.288 169.041L141.26 154.095C140.597 153.272 140.05 152.362 139.634 151.391C135.536 141.842 145.072 132.126 154.696 136.044ZM187.791 188.41L184.146 211.542C178.794 245.509 135.914 257.339 113.903 230.922L87.4353 199.156L41.7891 144.373C26.4275 125.936 38.7328 97.8772 62.7009 96.6887C73.1094 96.1725 82.9991 101.263 88.6279 110.033L89.4091 111.25C105.823 136.826 145.35 126.745 147.51 96.4319L150.883 49.0963C152.747 22.94 185.523 12.3774 202.308 32.5233C207.678 38.9675 210.008 47.4139 208.703 55.6996L200.894 105.256L203.816 100.565C204.139 100.046 204.516 99.5619 204.94 99.1208C211.062 92.7561 221.693 98.388 219.866 107.028L213.689 136.239C211.741 145.453 217.506 154.535 226.672 156.694L232.848 158.148C244.159 160.812 250.471 172.893 246.199 183.7C242.302 193.555 231.111 198.337 221.296 194.341L204.672 187.573C199.083 185.297 192.911 185.708 187.791 188.41Z" fill="#5BE080"/>
</svg>
