<svg width="197" height="205" viewBox="0 0 197 205" fill="none" xmlns="http://www.w3.org/2000/svg">
<g filter="url(#filter0_d)">
<path d="M41.4752 179.467L60.2976 188.963C65.175 191.424 71.0382 190.823 75.3148 187.424L177.014 106.59C185.451 99.8841 183.464 86.5586 173.437 82.6061L111.134 58.0473C96.0347 52.0955 84.6013 72.3018 97.4785 82.1801L104.037 87.2109C111.493 92.9305 111.308 104.226 103.67 109.699L39.6271 155.587C31.0767 161.714 32.0839 174.729 41.4752 179.467Z" fill="url(#paint0_linear)"/>
<path d="M61.6489 186.285L42.8265 176.788C35.4477 173.066 34.6562 162.84 41.3744 158.026L105.417 112.138C114.692 105.492 114.916 91.7758 105.863 84.8306L99.3044 79.7998C89.1866 72.0382 98.1701 56.1619 110.034 60.8383L172.337 85.3971C180.215 88.5026 181.777 98.9727 175.147 104.242L73.4482 185.075C70.088 187.746 65.4812 188.218 61.6489 186.285Z" stroke="url(#paint1_linear)" stroke-width="6"/>
</g>
<g filter="url(#filter1_d)">
<path d="M110.5 58.0015L6.89088 10.5452C6.57325 10.3997 6.27416 10.2167 6 10.0002L145.914 120.512C149.496 123.341 154.539 123.386 158.17 120.621L177.464 105.932C179.114 104.675 180.332 102.937 180.951 100.958L181.68 98.6249C182.217 96.9072 182.28 95.0766 181.863 93.3259L181.206 90.5669C180.45 87.3918 178.192 84.7854 175.157 83.5845L110.5 58.0015Z" fill="url(#paint2_linear)"/>
</g>
<defs>
<filter id="filter0_d" x="27.7803" y="50.9702" width="168.525" height="153.494" filterUnits="userSpaceOnUse" color-interpolation-filters="sRGB">
<feFlood flood-opacity="0" result="BackgroundImageFix"/>
<feColorMatrix in="SourceAlpha" type="matrix" values="0 0 0 0 0 0 0 0 0 0 0 0 0 0 0 0 0 0 127 0"/>
<feOffset dx="4" dy="4"/>
<feGaussianBlur stdDeviation="5"/>
<feColorMatrix type="matrix" values="0 0 0 0 0 0 0 0 0 0 0 0 0 0 0 0 0 0 0.51 0"/>
<feBlend mode="normal" in2="BackgroundImageFix" result="effect1_dropShadow"/>
<feBlend mode="normal" in="SourceGraphic" in2="effect1_dropShadow" result="shape"/>
</filter>
<filter id="filter1_d" x="0" y="0" width="188.135" height="124.665" filterUnits="userSpaceOnUse" color-interpolation-filters="sRGB">
<feFlood flood-opacity="0" result="BackgroundImageFix"/>
<feColorMatrix in="SourceAlpha" type="matrix" values="0 0 0 0 0 0 0 0 0 0 0 0 0 0 0 0 0 0 127 0"/>
<feOffset dy="-4"/>
<feGaussianBlur stdDeviation="3"/>
<feColorMatrix type="matrix" values="0 0 0 0 0 0 0 0 0 0 0 0 0 0 0 0 0 0 0.25 0"/>
<feBlend mode="normal" in2="BackgroundImageFix" result="effect1_dropShadow"/>
<feBlend mode="normal" in="SourceGraphic" in2="effect1_dropShadow" result="shape"/>
</filter>
<linearGradient id="paint0_linear" x1="151.833" y1="169.5" x2="-10.1669" y2="-21.5" gradientUnits="userSpaceOnUse">
<stop stop-color="#0085FF"/>
<stop offset="1" stop-color="#07FFA6"/>
</linearGradient>
<linearGradient id="paint1_linear" x1="-14.6665" y1="-18.0004" x2="193.334" y2="187" gradientUnits="userSpaceOnUse">
<stop stop-color="#61FFE0"/>
<stop offset="1" stop-color="#0198F1"/>
</linearGradient>
<linearGradient id="paint2_linear" x1="-1.49994" y1="6.49986" x2="134" y2="60.5002" gradientUnits="userSpaceOnUse">
<stop stop-color="#FF3C3C" stop-opacity="0"/>
<stop offset="0.0001" stop-color="#0085FF"/>
<stop offset="1" stop-color="#3DFFD0"/>
</linearGradient>
</defs>
</svg>
