<svg width="267" height="267" viewBox="0 0 267 267" fill="none" xmlns="http://www.w3.org/2000/svg">
<rect width="267" height="267" rx="50" fill="#666666"/>
<rect y="44" width="267" height="223" rx="50" fill="#373737"/>
<g filter="url(#filter0_d)">
<path d="M53 71L66.5975 91.6512C98.099 139.494 168.204 139.695 199.978 92.0326L214 71" stroke="#B3B3B3" stroke-width="9" stroke-linecap="round" stroke-linejoin="round"/>
</g>
<circle cx="52" cy="26" r="5" fill="#363636"/>
<circle cx="213" cy="26" r="5" fill="#363636"/>
<path d="M208.542 243.496L199.593 238.981C197.58 237.966 197.365 235.177 199.197 233.864L227.544 213.552C228.911 212.573 229.381 210.754 228.66 209.235C228.145 208.15 229.071 206.936 230.253 207.147L246.084 209.963C248.638 210.418 249.45 213.681 247.407 215.28L211.742 243.18C210.826 243.896 209.58 244.019 208.542 243.496Z" fill="url(#paint0_linear)" stroke="url(#paint1_linear)" stroke-width="2"/>
<path d="M190 179L239.527 218.119C241.35 219.559 243.925 219.554 245.742 218.106L251.535 213.49C251.734 213.332 251.92 213.158 252.093 212.971L252.24 212.812C253.333 211.627 253.743 209.964 253.323 208.407C252.952 207.026 251.971 205.89 250.659 205.321L190.032 179.019C190.02 179.014 190.01 179.008 190 179Z" fill="url(#paint2_linear)"/>
<path d="M35.373 221.225L48.5322 191.898H57.5557L38.2466 231H30.0288L22.9927 191.898H31.4521L35.373 221.225ZM66.9819 231.537C64.4396 231.519 62.1838 230.902 60.2144 229.684C58.2629 228.449 56.8037 226.766 55.8369 224.635C54.8701 222.487 54.4941 220.124 54.709 217.545L54.7896 216.471C55.0581 213.642 55.8817 211.046 57.2603 208.683C58.6388 206.32 60.4113 204.503 62.5776 203.231C64.744 201.942 67.1431 201.334 69.7749 201.405C73.5168 201.477 76.3455 202.855 78.2612 205.541C80.1948 208.209 80.9289 211.592 80.4634 215.692L80.0337 218.996H62.2285C62.1569 220.875 62.6134 222.379 63.5981 223.507C64.5828 224.635 65.9256 225.217 67.6265 225.253C70.3836 225.325 72.8006 224.259 74.8774 222.057L78.3418 226.354C77.2497 228.001 75.6742 229.29 73.6152 230.221C71.5563 231.134 69.3452 231.573 66.9819 231.537ZM69.3989 207.663C68.0024 207.627 66.7581 208.065 65.666 208.979C64.5918 209.892 63.625 211.476 62.7656 213.732H73.1855L73.3467 213.034C73.4541 212.318 73.4631 211.637 73.3735 210.993C73.1945 209.954 72.7559 209.149 72.0576 208.576C71.3594 207.985 70.4731 207.681 69.3989 207.663ZM94.2671 201.916L93.6226 205.353C95.95 202.65 98.7699 201.334 102.082 201.405C104.821 201.459 106.844 202.462 108.151 204.413C109.458 206.365 109.933 209.068 109.575 212.523L106.513 231H98.9399L102.055 212.443C102.145 211.745 102.163 211.109 102.109 210.536C101.876 208.71 100.73 207.77 98.6714 207.716C96.6841 207.645 94.9027 208.567 93.3271 210.482L89.7017 231H82.1284L87.1772 201.942L94.2671 201.916ZM126.896 201.378C129.6 201.45 131.784 202.533 133.449 204.628L136.296 189.75H143.896L136.752 231H129.985L130.415 227.885C128.248 230.409 125.724 231.636 122.841 231.564C121.033 231.546 119.449 231.072 118.088 230.141C116.727 229.21 115.671 227.876 114.919 226.139C114.185 224.385 113.782 222.433 113.71 220.285C113.657 219.157 113.684 218.065 113.791 217.008L113.952 215.8C114.382 212.828 115.205 210.214 116.423 207.958C117.658 205.702 119.162 204.028 120.935 202.936C122.725 201.844 124.712 201.325 126.896 201.378ZM121.391 217.008C121.248 218.369 121.203 219.515 121.257 220.446C121.436 223.597 122.707 225.199 125.07 225.253C127.201 225.342 129.054 224.34 130.629 222.245L132.697 210.697C131.999 208.782 130.603 207.779 128.508 207.689C126.664 207.636 125.124 208.352 123.889 209.838C122.671 211.306 121.839 213.696 121.391 217.008ZM160.976 205.326L170.188 191.898H179.641L165.273 211.664L173.383 231H164.682L159.553 217.357L150.126 231H140.566L155.256 210.912L147.387 191.898H155.981L160.976 205.326Z" fill="white"/>
<defs>
<filter id="filter0_d" x="42.4995" y="64.4995" width="182.001" height="77.6571" filterUnits="userSpaceOnUse" color-interpolation-filters="sRGB">
<feFlood flood-opacity="0" result="BackgroundImageFix"/>
<feColorMatrix in="SourceAlpha" type="matrix" values="0 0 0 0 0 0 0 0 0 0 0 0 0 0 0 0 0 0 127 0"/>
<feOffset dy="4"/>
<feGaussianBlur stdDeviation="3"/>
<feColorMatrix type="matrix" values="0 0 0 0 0 0 0 0 0 0 0 0 0 0 0 0 0 0 0.25 0"/>
<feBlend mode="normal" in2="BackgroundImageFix" result="effect1_dropShadow"/>
<feBlend mode="normal" in="SourceGraphic" in2="effect1_dropShadow" result="shape"/>
</filter>
<linearGradient id="paint0_linear" x1="240.476" y1="237.059" x2="182.068" y2="168.195" gradientUnits="userSpaceOnUse">
<stop stop-color="#0085FF"/>
<stop offset="1" stop-color="#07FFA6"/>
</linearGradient>
<linearGradient id="paint1_linear" x1="180.445" y1="169.457" x2="255.439" y2="243.369" gradientUnits="userSpaceOnUse">
<stop stop-color="#61FFE0"/>
<stop offset="1" stop-color="#0198F1"/>
</linearGradient>
<linearGradient id="paint2_linear" x1="187.296" y1="177.738" x2="236.15" y2="197.208" gradientUnits="userSpaceOnUse">
<stop stop-color="#FF3C3C" stop-opacity="0"/>
<stop offset="0.0001" stop-color="#0085FF"/>
<stop offset="1" stop-color="#3DFFD0"/>
</linearGradient>
</defs>
</svg>
